<?xml version="1.0" encoding="utf-8"?>
<!-- Generator: Adobe Illustrator 19.0.0, SVG Export Plug-In . SVG Version: 6.00 Build 0)  -->
<svg version="1.1" id="Capa_1" xmlns="http://www.w3.org/2000/svg" xmlns:xlink="http://www.w3.org/1999/xlink" x="0px" y="0px"
	 viewBox="-463 266 31 31" style="enable-background:new -463 266 31 31;" xml:space="preserve">
<style type="text/css">
	.st0{fill:#8892B0;}
</style>
<g>
	<g>
		<path class="st0" d="M-437.9,287.5c-0.1,0-0.2,0-0.3-0.1l-5.8-5.4c-0.2-0.2-0.2-0.5,0-0.7c0.2-0.2,0.5-0.2,0.7,0l5.8,5.4
			c0.2,0.2,0.2,0.5,0,0.7C-437.6,287.4-437.8,287.5-437.9,287.5z"/>
		<path class="st0" d="M-457.1,287.5c-0.1,0-0.3-0.1-0.4-0.2c-0.2-0.2-0.2-0.5,0-0.7l5.8-5.4c0.2-0.2,0.5-0.2,0.7,0
			c0.2,0.2,0.2,0.5,0,0.7l-5.8,5.4C-456.9,287.5-457,287.5-457.1,287.5z"/>
	</g>
	<path class="st0" d="M-434.5,292.5h-26c-1.4,0-2.5-1.1-2.5-2.5v-17c0-1.4,1.1-2.5,2.5-2.5h26c1.4,0,2.5,1.1,2.5,2.5v17
		C-432,291.4-433.1,292.5-434.5,292.5z M-460.5,271.5c-0.8,0-1.5,0.7-1.5,1.5v17c0,0.8,0.7,1.5,1.5,1.5h26c0.8,0,1.5-0.7,1.5-1.5
		v-17c0-0.8-0.7-1.5-1.5-1.5H-460.5z"/>
	<path class="st0" d="M-447.5,284c-0.7,0-1.3-0.2-1.8-0.7l-12.8-11.2c-0.2-0.2-0.2-0.5,0-0.7c0.2-0.2,0.5-0.2,0.7,0l12.8,11.2
		c0.6,0.6,1.7,0.6,2.4,0l12.8-11.2c0.2-0.2,0.5-0.2,0.7,0c0.2,0.2,0.2,0.5,0,0.7l-12.8,11.2C-446.2,283.8-446.8,284-447.5,284z"/>
</g>
</svg>
