<?xml version="1.0" encoding="utf-8"?>
<!-- Generator: Adobe Illustrator 19.0.0, SVG Export Plug-In . SVG Version: 6.00 Build 0)  -->
<svg version="1.1" id="Layer_1" xmlns="http://www.w3.org/2000/svg" xmlns:xlink="http://www.w3.org/1999/xlink" x="0px" y="0px"
	 viewBox="-447 249 64 64" style="enable-background:new -447 249 64 64;" xml:space="preserve">
<style type="text/css">
	.st0{fill:#08F3D0;}
</style>
<g>
	<path class="st0" d="M-443.2,266.6h56.4c0.7,0,1.3-0.6,1.3-1.3l0,0c0-0.7-0.6-1.3-1.3-1.3h-56.4c-0.7,0-1.3,0.6-1.3,1.3l0,0
		C-444.5,266-443.9,266.6-443.2,266.6z"/>
	<path class="st0" d="M-424.9,282.3h38.1c0.7,0,1.3-0.6,1.3-1.3l0,0c0-0.7-0.6-1.3-1.3-1.3h-38.1c-0.7,0-1.3,0.6-1.3,1.3l0,0
		C-426.1,281.8-425.6,282.3-424.9,282.3z"/>
	<path class="st0" d="M-412.2,297.9h25.4c0.7,0,1.3-0.6,1.3-1.3l0,0c0-0.7-0.6-1.3-1.3-1.3h-25.4c-0.7,0-1.3,0.6-1.3,1.3l0,0
		C-413.5,297.4-412.9,297.9-412.2,297.9z"/>
</g>
</svg>
