<?xml version="1.0" encoding="utf-8"?>
<!-- Generator: Adobe Illustrator 19.0.0, SVG Export Plug-In . SVG Version: 6.00 Build 0)  -->
<svg version="1.1" id="Capa_1" xmlns="http://www.w3.org/2000/svg" xmlns:xlink="http://www.w3.org/1999/xlink" x="0px" y="0px"
	 viewBox="-452 253.2 54.8 54.8" style="enable-background:new -452 253.2 54.8 54.8;" xml:space="preserve">
<style type="text/css">
	.st0{fill:#8892B0;}
</style>
<g>
	<path class="st0" d="M-424.4,265.2c-3.9,0-7,3.1-7,7c0,3.9,3.1,7,7,7c3.9,0,7-3.1,7-7C-417.4,268.4-420.6,265.2-424.4,265.2z
		 M-424.4,277.2c-2.8,0-5-2.2-5-5c0-2.8,2.2-5,5-5c2.8,0,5,2.2,5,5C-419.4,275-421.7,277.2-424.4,277.2z"/>
	<path class="st0" d="M-411.1,258.9c-3.6-3.6-8.4-5.6-13.6-5.6c-5.1,0-9.9,2-13.6,5.6c-6.7,6.7-7.5,19.3-1.8,27l15.4,22.2l15.3-22.2
		C-403.5,278.2-404.4,265.6-411.1,258.9z M-410.9,284.7l-13.7,19.8l-13.7-19.8c-5.2-6.9-4.5-18.3,1.6-24.4c3.2-3.2,7.6-5,12.1-5
		c4.6,0,8.9,1.8,12.1,5C-406.4,266.3-405.7,277.7-410.9,284.7z"/>
</g>
</svg>
